<svg width="83" height="63" viewBox="0 0 83 63" fill="none" xmlns="http://www.w3.org/2000/svg">
<path d="M14.5781 30.5712L7.55789 26.6267L2.69775 47.4763" stroke="white" stroke-width="4" stroke-linecap="round" stroke-linejoin="round"/>
<path d="M18.3584 42.968L13.4982 41.2775L6.47803 61" stroke="white" stroke-width="4" stroke-linecap="round" stroke-linejoin="round"/>
<path d="M65.8794 15.9204L71.8196 9.72192L80.4598 22.6825" stroke="white" stroke-width="4" stroke-linecap="round" stroke-linejoin="round"/>
<path d="M69.6597 30.5712L76.1399 26.6267L81 46.9128" stroke="white" stroke-width="4" stroke-linecap="round" stroke-linejoin="round"/>
<path d="M66.9597 42.4045L71.8199 41.2775L78.8401 61" stroke="white" stroke-width="4" stroke-linecap="round" stroke-linejoin="round"/>
<path d="M18.8985 14.793L11.8783 9.15796L3.23804 22.682" stroke="white" stroke-width="4" stroke-linecap="round" stroke-linejoin="round"/>
<ellipse cx="42.6592" cy="30.0077" rx="28.0808" ry="29.3021" fill="#F5F5F5"/>
<ellipse cx="31.8588" cy="28.6215" rx="7.56022" ry="7.88903" fill="#E1DAD0"/>
<ellipse cx="52.3793" cy="28.6215" rx="7.56022" ry="7.88903" fill="#E1DAD0"/>
<ellipse cx="4.32541" cy="4.50294" rx="4.32541" ry="4.50294" transform="matrix(0.984913 0.173052 -0.159301 0.98723 45.845 25.681)" fill="#353959"/>
<ellipse cx="28.8672" cy="30.8748" rx="4.32012" ry="4.50802" fill="#353959"/>
<path d="M43.0815 16.3132L56.5427 10.8506" stroke="#777CA4" stroke-linecap="round" stroke-linejoin="round"/>
<path d="M37.0986 16.3126L24.3853 12.4108" stroke="#777CA4" stroke-linecap="round" stroke-linejoin="round"/>
<path d="M28.1245 48.3079C33.2373 41.9104 40.1763 42.7018 53.5511 45.1864" stroke="#777CA4" stroke-linecap="round" stroke-linejoin="round"/>
</svg>
