<svg width="130" height="80" viewBox="0 0 130 80" fill="none" xmlns="http://www.w3.org/2000/svg">
<path d="M32.5 21L17.5 11L3.5 20" stroke="#353959" stroke-width="2" stroke-linecap="round" stroke-linejoin="round"/>
<path d="M27.3312 44.5478L16 42.5L1 51.5" stroke="#353959" stroke-width="2" stroke-linecap="round" stroke-linejoin="round"/>
<path d="M31.6865 57.3789L19.5 57.3789L4.5 71.5" stroke="#353959" stroke-width="2" stroke-linecap="round" stroke-linejoin="round"/>
<path d="M105.011 32.6566L114.5 29L128 38" stroke="#353959" stroke-width="2" stroke-linecap="round" stroke-linejoin="round"/>
<path d="M104.5 45L113.5 43.5L127.5 59" stroke="#353959" stroke-width="2" stroke-linecap="round" stroke-linejoin="round"/>
<path d="M100.541 56.6138L107.427 55.0837L122 75.5" stroke="#353959" stroke-width="2" stroke-linecap="round" stroke-linejoin="round"/>
<path d="M27.4516 31.1264L17 26.5L4 34" stroke="#353959" stroke-width="2" stroke-linecap="round" stroke-linejoin="round"/>
<path d="M100.5 19L111 10L129 23" stroke="#353959" stroke-width="2" stroke-linecap="round" stroke-linejoin="round"/>
<circle cx="66.1139" cy="39.7828" r="39.7828" fill="#555A80"/>
<circle cx="50.8129" cy="33.6624" r="10.7107" fill="white"/>
<circle cx="79.8849" cy="33.6624" r="10.7107" fill="white"/>
<circle cx="79.8849" cy="36.7226" r="6.12043" transform="rotate(9.5578 79.8849 36.7226)" fill="#353959"/>
<circle cx="50.8129" cy="36.7225" r="6.12043" fill="#353959"/>
<path d="M49.2827 55.0837C66.8789 76.5052 83.7101 55.0837 83.7101 55.0837" stroke="#353959" stroke-width="2" stroke-linecap="round" stroke-linejoin="round"/>
</svg>
